<svg width="267" height="76" viewBox="0 0 267 76" fill="none" xmlns="http://www.w3.org/2000/svg">
<path fill-rule="evenodd" clip-rule="evenodd" d="M257 0H9V4H3V10H0V68H3V74H9V76H257V74H264V68H267V10H264V4H257V0Z" fill="white"/>
<rect x="3" y="38" width="261" height="35" fill="#EDEDED"/>
<mask id="path-3-inside-1_2_530" fill="white">
<path fill-rule="evenodd" clip-rule="evenodd" d="M257 0H9V4H3V10H0V65H3V71H9V73H257V71H264V65H267V10H264V4H257V0Z"/>
</mask>
<path d="M9 0V-3H6V0H9ZM257 0H260V-3H257V0ZM9 4V7H12V4H9ZM3 4V1H0V4H3ZM3 10V13H6V10H3ZM0 10V7H-3V10H0ZM0 65H-3V68H0V65ZM3 65H6V62H3V65ZM3 71H0V74H3V71ZM9 71H12V68H9V71ZM9 73H6V76H9V73ZM257 73V76H260V73H257ZM257 71V68H254V71H257ZM264 71V74H267V71H264ZM264 65V62H261V65H264ZM267 65V68H270V65H267ZM267 10H270V7H267V10ZM264 10H261V13H264V10ZM264 4H267V1H264V4ZM257 4H254V7H257V4ZM9 3H257V-3H9V3ZM12 4V0H6V4H12ZM9 1H3V7H9V1ZM0 4V10H6V4H0ZM3 7H0V13H3V7ZM-3 10V65H3V10H-3ZM0 68H3V62H0V68ZM0 65V71H6V65H0ZM3 74H9V68H3V74ZM12 73V71H6V73H12ZM257 70H9V76H257V70ZM254 71V73H260V71H254ZM257 74H264V68H257V74ZM267 71V65H261V71H267ZM264 68H267V62H264V68ZM270 65V10H264V65H270ZM267 7H264V13H267V7ZM267 10V4H261V10H267ZM264 1H257V7H264V1ZM254 0V4H260V0H254Z" fill="#D5BE9D" mask="url(#path-3-inside-1_2_530)"/>
<mask id="path-5-inside-2_2_530" fill="white">
<path fill-rule="evenodd" clip-rule="evenodd" d="M257 0H9V4H3V10H0V68H3V74H9V76H257V74H264V68H267V10H264V4H257V0Z"/>
</mask>
<path d="M9 0V-3H6V0H9ZM257 0H260V-3H257V0ZM9 4V7H12V4H9ZM3 4V1H0V4H3ZM3 10V13H6V10H3ZM0 10V7H-3V10H0ZM0 68H-3V71H0V68ZM3 68H6V65H3V68ZM3 74H0V77H3V74ZM9 74H12V71H9V74ZM9 76H6V79H9V76ZM257 76V79H260V76H257ZM257 74V71H254V74H257ZM264 74V77H267V74H264ZM264 68V65H261V68H264ZM267 68V71H270V68H267ZM267 10H270V7H267V10ZM264 10H261V13H264V10ZM264 4H267V1H264V4ZM257 4H254V7H257V4ZM9 3H257V-3H9V3ZM12 4V0H6V4H12ZM9 1H3V7H9V1ZM0 4V10H6V4H0ZM3 7H0V13H3V7ZM-3 10V68H3V10H-3ZM0 71H3V65H0V71ZM0 68V74H6V68H0ZM3 77H9V71H3V77ZM12 76V74H6V76H12ZM257 73H9V79H257V73ZM254 74V76H260V74H254ZM257 77H264V71H257V77ZM267 74V68H261V74H267ZM264 71H267V65H264V71ZM270 68V10H264V68H270ZM267 7H264V13H267V7ZM267 10V4H261V10H267ZM264 1H257V7H264V1ZM254 0V4H260V0H254Z" fill="#543847" mask="url(#path-5-inside-2_2_530)"/>
</svg>
