<svg width="171" height="76" viewBox="0 0 171 76" fill="none" xmlns="http://www.w3.org/2000/svg">
<path fill-rule="evenodd" clip-rule="evenodd" d="M161 0H9V4H3V10H0V68H3V74H9V76H161V74H168V68H171V10H168V4H161V0Z" fill="white"/>
<rect x="3" y="38" width="165" height="35" fill="#EDEDED"/>
<mask id="path-3-inside-1_2_468" fill="white">
<path fill-rule="evenodd" clip-rule="evenodd" d="M161 0H9V4H3V10H0V65H3V71H9V73H161V71H168V65H171V10H168V4H161V0Z"/>
</mask>
<path d="M9 0V-3H6V0H9ZM161 0H164V-3H161V0ZM9 4V7H12V4H9ZM3 4V1H0V4H3ZM3 10V13H6V10H3ZM0 10V7H-3V10H0ZM0 65H-3V68H0V65ZM3 65H6V62H3V65ZM3 71H0V74H3V71ZM9 71H12V68H9V71ZM9 73H6V76H9V73ZM161 73V76H164V73H161ZM161 71V68H158V71H161ZM168 71V74H171V71H168ZM168 65V62H165V65H168ZM171 65V68H174V65H171ZM171 10H174V7H171V10ZM168 10H165V13H168V10ZM168 4H171V1H168V4ZM161 4H158V7H161V4ZM9 3H161V-3H9V3ZM12 4V0H6V4H12ZM9 1H3V7H9V1ZM0 4V10H6V4H0ZM3 7H0V13H3V7ZM-3 10V65H3V10H-3ZM0 68H3V62H0V68ZM0 65V71H6V65H0ZM3 74H9V68H3V74ZM12 73V71H6V73H12ZM161 70H9V76H161V70ZM158 71V73H164V71H158ZM161 74H168V68H161V74ZM171 71V65H165V71H171ZM168 68H171V62H168V68ZM174 65V10H168V65H174ZM171 7H168V13H171V7ZM171 10V4H165V10H171ZM168 1H161V7H168V1ZM158 0V4H164V0H158Z" fill="#D5BE9D" mask="url(#path-3-inside-1_2_468)"/>
<mask id="path-5-inside-2_2_468" fill="white">
<path fill-rule="evenodd" clip-rule="evenodd" d="M161 0H9V4H3V10H0V68H3V74H9V76H161V74H168V68H171V10H168V4H161V0Z"/>
</mask>
<path d="M9 0V-3H6V0H9ZM161 0H164V-3H161V0ZM9 4V7H12V4H9ZM3 4V1H0V4H3ZM3 10V13H6V10H3ZM0 10V7H-3V10H0ZM0 68H-3V71H0V68ZM3 68H6V65H3V68ZM3 74H0V77H3V74ZM9 74H12V71H9V74ZM9 76H6V79H9V76ZM161 76V79H164V76H161ZM161 74V71H158V74H161ZM168 74V77H171V74H168ZM168 68V65H165V68H168ZM171 68V71H174V68H171ZM171 10H174V7H171V10ZM168 10H165V13H168V10ZM168 4H171V1H168V4ZM161 4H158V7H161V4ZM9 3H161V-3H9V3ZM12 4V0H6V4H12ZM9 1H3V7H9V1ZM0 4V10H6V4H0ZM3 7H0V13H3V7ZM-3 10V68H3V10H-3ZM0 71H3V65H0V71ZM0 68V74H6V68H0ZM3 77H9V71H3V77ZM12 76V74H6V76H12ZM161 73H9V79H161V73ZM158 74V76H164V74H158ZM161 77H168V71H161V77ZM171 74V68H165V74H171ZM168 71H171V65H168V71ZM174 68V10H168V68H174ZM171 7H168V13H171V7ZM171 10V4H165V10H171ZM168 1H161V7H168V1ZM158 0V4H164V0H158Z" fill="#543847" mask="url(#path-5-inside-2_2_468)"/>
</svg>
