<svg width="24" height="24" viewBox="0 0 24 24" fill="none" xmlns="http://www.w3.org/2000/svg">
<g clip-path="url(#clip0_2_208)">
<path d="M14 22H12V24H14V22Z" fill="white"/>
<path d="M12 22H10V24H12V22Z" fill="white"/>
<path d="M16 20H14V22H16V20Z" fill="white"/>
<path d="M14 20H12V22H14V20Z" fill="white"/>
<path d="M12 20H10V22H12V20Z" fill="white"/>
<path d="M10 20H8V22H10V20Z" fill="white"/>
<path d="M16 18H14V20H16V18Z" fill="white"/>
<path d="M14 18H12V20H14V18Z" fill="white"/>
<path d="M12 18H10V20H12V18Z" fill="white"/>
<path d="M10 18H8V20H10V18Z" fill="white"/>
<path d="M18 16H16V18H18V16Z" fill="white"/>
<path d="M16 16H14V18H16V16Z" fill="white"/>
<path d="M14 16H12V18H14V16Z" fill="white"/>
<path d="M12 16H10V18H12V16Z" fill="white"/>
<path d="M10 16H8V18H10V16Z" fill="white"/>
<path d="M8 16H6V18H8V16Z" fill="white"/>
<path d="M18 14H16V16H18V14Z" fill="white"/>
<path d="M14 14H12V16H14V14Z" fill="white"/>
<path d="M12 14H10V16H12V14Z" fill="white"/>
<path d="M8 14H6V16H8V14Z" fill="white"/>
<path d="M20 12H18V14H20V12Z" fill="white"/>
<path d="M18 12H16V14H18V12Z" fill="white"/>
<path d="M14 12H12V14H14V12Z" fill="white"/>
<path d="M12 12H10V14H12V12Z" fill="white"/>
<path d="M8 12H6V14H8V12Z" fill="white"/>
<path d="M6 12H4V14H6V12Z" fill="white"/>
<path d="M22 10H20V12H22V10Z" fill="white"/>
<path d="M20 10H18V12H20V10Z" fill="white"/>
<path d="M14 10H12V12H14V10Z" fill="white"/>
<path d="M12 10H10V12H12V10Z" fill="white"/>
<path d="M6 10H4V12H6V10Z" fill="white"/>
<path d="M4 10H2V12H4V10Z" fill="white"/>
<path d="M22 8H20V10H22V8Z" fill="white"/>
<path d="M20 8H18V10H20V8Z" fill="white"/>
<path d="M14 8H12V10H14V8Z" fill="white"/>
<path d="M12 8H10V10H12V8Z" fill="white"/>
<path d="M6 8H4V10H6V8Z" fill="white"/>
<path d="M4 8H2V10H4V8Z" fill="white"/>
<path d="M24 6H22V8H24V6Z" fill="white"/>
<path d="M22 6H20V8H22V6Z" fill="white"/>
<path d="M14 6H12V8H14V6Z" fill="white"/>
<path d="M12 6H10V8H12V6Z" fill="white"/>
<path d="M4 6H2V8H4V6Z" fill="white"/>
<path d="M2 6H0V8H2V6Z" fill="white"/>
<path d="M24 4H22V6H24V4Z" fill="white"/>
<path d="M22 4H20V6H22V4Z" fill="white"/>
<path d="M14 4H12V6H14V4Z" fill="white"/>
<path d="M12 4H10V6H12V4Z" fill="white"/>
<path d="M4 4H2V6H4V4Z" fill="white"/>
<path d="M2 4H0V6H2V4Z" fill="white"/>
<path d="M24 2H22V4H24V2Z" fill="white"/>
<path d="M22 2H20V4H22V2Z" fill="white"/>
<path d="M20 2H18V4H20V2Z" fill="white"/>
<path d="M18 2H16V4H18V2Z" fill="white"/>
<path d="M16 2H14V4H16V2Z" fill="white"/>
<path d="M14 2H12V4H14V2Z" fill="white"/>
<path d="M12 2H10V4H12V2Z" fill="white"/>
<path d="M10 2H8V4H10V2Z" fill="white"/>
<path d="M8 2H6V4H8V2Z" fill="white"/>
<path d="M6 2H4V4H6V2Z" fill="white"/>
<path d="M4 2H2V4H4V2Z" fill="white"/>
<path d="M2 2H0V4H2V2Z" fill="white"/>
<path d="M22 0H20V2H22V0Z" fill="white"/>
<path d="M20 0H18V2H20V0Z" fill="white"/>
<path d="M18 0H16V2H18V0Z" fill="white"/>
<path d="M16 0H14V2H16V0Z" fill="white"/>
<path d="M14 0H12V2H14V0Z" fill="white"/>
<path d="M12 0H10V2H12V0Z" fill="white"/>
<path d="M10 0H8V2H10V0Z" fill="white"/>
<path d="M8 0H6V2H8V0Z" fill="white"/>
<path d="M6 0H4V2H6V0Z" fill="white"/>
<path d="M4 0H2V2H4V0Z" fill="white"/>
</g>
<defs>
<clipPath id="clip0_2_208">
<rect width="24" height="24" fill="white"/>
</clipPath>
</defs>
</svg>
