<svg width="326" height="76" viewBox="0 0 326 76" fill="none" xmlns="http://www.w3.org/2000/svg">
<path fill-rule="evenodd" clip-rule="evenodd" d="M316 0H9V4H3V10H0V68H3V74H9V76H316V74H323V68H326V10H323V4H316V0Z" fill="#0098EA"/>
<rect x="3" y="38" width="320" height="35" fill="#0085CD"/>
<mask id="path-3-inside-1_2_178" fill="white">
<path fill-rule="evenodd" clip-rule="evenodd" d="M316 0H9V4H3V10H0V65H3V71H9V73H316V71H323V65H326V10H323V4H316V0Z"/>
</mask>
<path d="M9 0V-3H6V0H9ZM316 0H319V-3H316V0ZM9 4V7H12V4H9ZM3 4V1H0V4H3ZM3 10V13H6V10H3ZM0 10V7H-3V10H0ZM0 65H-3V68H0V65ZM3 65H6V62H3V65ZM3 71H0V74H3V71ZM9 71H12V68H9V71ZM9 73H6V76H9V73ZM316 73V76H319V73H316ZM316 71V68H313V71H316ZM323 71V74H326V71H323ZM323 65V62H320V65H323ZM326 65V68H329V65H326ZM326 10H329V7H326V10ZM323 10H320V13H323V10ZM323 4H326V1H323V4ZM316 4H313V7H316V4ZM9 3H316V-3H9V3ZM12 4V0H6V4H12ZM9 1H3V7H9V1ZM0 4V10H6V4H0ZM3 7H0V13H3V7ZM-3 10V65H3V10H-3ZM0 68H3V62H0V68ZM0 65V71H6V65H0ZM3 74H9V68H3V74ZM12 73V71H6V73H12ZM316 70H9V76H316V70ZM313 71V73H319V71H313ZM316 74H323V68H316V74ZM326 71V65H320V71H326ZM323 68H326V62H323V68ZM329 65V10H323V65H329ZM326 7H323V13H326V7ZM326 10V4H320V10H326ZM323 1H316V7H323V1ZM313 0V4H319V0H313Z" fill="#00A6FF" mask="url(#path-3-inside-1_2_178)"/>
<mask id="path-5-inside-2_2_178" fill="white">
<path fill-rule="evenodd" clip-rule="evenodd" d="M316 0H9V4H3V10H0V68H3V74H9V76H316V74H323V68H326V10H323V4H316V0Z"/>
</mask>
<path d="M9 0V-3H6V0H9ZM316 0H319V-3H316V0ZM9 4V7H12V4H9ZM3 4V1H0V4H3ZM3 10V13H6V10H3ZM0 10V7H-3V10H0ZM0 68H-3V71H0V68ZM3 68H6V65H3V68ZM3 74H0V77H3V74ZM9 74H12V71H9V74ZM9 76H6V79H9V76ZM316 76V79H319V76H316ZM316 74V71H313V74H316ZM323 74V77H326V74H323ZM323 68V65H320V68H323ZM326 68V71H329V68H326ZM326 10H329V7H326V10ZM323 10H320V13H323V10ZM323 4H326V1H323V4ZM316 4H313V7H316V4ZM9 3H316V-3H9V3ZM12 4V0H6V4H12ZM9 1H3V7H9V1ZM0 4V10H6V4H0ZM3 7H0V13H3V7ZM-3 10V68H3V10H-3ZM0 71H3V65H0V71ZM0 68V74H6V68H0ZM3 77H9V71H3V77ZM12 76V74H6V76H12ZM316 73H9V79H316V73ZM313 74V76H319V74H313ZM316 77H323V71H316V77ZM326 74V68H320V74H326ZM323 71H326V65H323V71ZM329 68V10H323V68H329ZM326 7H323V13H326V7ZM326 10V4H320V10H326ZM323 1H316V7H323V1ZM313 0V4H319V0H313Z" fill="#003653" mask="url(#path-5-inside-2_2_178)"/>
<g clip-path="url(#clip0_2_178)">
</g>
<defs>
<clipPath id="clip0_2_178">
<rect width="24" height="24" fill="white" transform="translate(23 26)"/>
</clipPath>
</defs>
</svg>
